<svg width="128" height="128" viewBox="0 0 128 128" fill="none" xmlns="http://www.w3.org/2000/svg">
  <rect width="128" height="128" rx="24" fill="#24292f"/>
  <path d="M64 16C37.49 16 16 37.49 16 64C16 86.91 32.13 105.91 53.48 110.78C56.33 111.31 57.31 109.58 57.31 108.09C57.31 106.75 57.26 102.75 57.24 98.5C41.99 101.87 38.58 91.75 38.58 91.75C35.97 85.02 32.34 83.27 32.34 83.27C27.28 79.8 32.73 79.87 32.73 79.87C38.34 80.27 41.39 85.61 41.39 85.61C46.33 94.03 54.31 91.56 57.42 90.15C57.91 86.91 59.34 84.45 60.92 83.07C48.91 81.67 36.27 76.89 36.27 55.79C36.27 49.63 38.42 44.69 41.92 40.86C41.36 39.46 39.45 33.81 42.44 26.13C42.44 26.13 47.07 24.62 57.19 30.82C61.58 29.6 66.28 28.99 70.95 28.97C75.62 28.99 80.32 29.6 84.71 30.82C94.83 24.62 99.45 26.13 99.45 26.13C102.45 33.81 100.54 39.46 99.98 40.86C103.49 44.69 105.62 49.63 105.62 55.79C105.62 76.94 92.95 81.66 80.89 83.03C82.87 84.73 84.63 88.08 84.63 93.24C84.63 100.68 84.56 106.66 84.56 108.09C84.56 109.59 85.52 111.33 88.41 110.77C109.75 105.89 125.87 86.9 125.87 64C125.87 37.49 104.38 16 77.87 16H64Z" fill="white"/>
  <circle cx="64" cy="88" r="8" fill="#40c463"/>
  <path d="M48 56L64 72L80 56" stroke="white" stroke-width="4" stroke-linecap="round" stroke-linejoin="round"/>
</svg>
